<?xml version="1.0" encoding="UTF-8" standalone="no"?>
<!-- Created with Inkscape (http://www.inkscape.org/) -->

<svg
   xmlns:dc="http://purl.org/dc/elements/1.1/"
   xmlns:cc="http://creativecommons.org/ns#"
   xmlns:rdf="http://www.w3.org/1999/02/22-rdf-syntax-ns#"
   xmlns:svg="http://www.w3.org/2000/svg"
   xmlns="http://www.w3.org/2000/svg"
   xmlns:inkscape="http://www.inkscape.org/namespaces/inkscape"
   version="1.0"
   width="648"
   height="253"
   id="svg2">
  <defs
     id="defs4" />
  <metadata
     id="metadata7">
    <rdf:RDF>
      <cc:Work
         rdf:about="">
        <dc:format>image/svg+xml</dc:format>
        <dc:type
           rdf:resource="http://purl.org/dc/dcmitype/StillImage" />
      </cc:Work>
    </rdf:RDF>
  </metadata>
  <g
     id="layer1">
    <g
       transform="translate(-14,-16)"
       id="g2379">
      <path
         d="m 84.852814,29.203922 -0.01928,16.550438 c 0,11.04667 -8.965413,20.012084 -20.012083,20.012084 -11.04667,0 -20.012084,-8.965414 -20.012084,-20.012084 l 0,-16.550438 40.043449,0 21.592014,32.829957 23.73858,-32.829957 -45.330594,0 z"
         inkscape:connector-curvature="0"
         id="path1354"
         style="fill:#8bfc00;fill-opacity:1;fill-rule:evenodd;stroke:#60b300;stroke-width:2.29999995;stroke-linecap:butt;stroke-linejoin:round;stroke-miterlimit:4;stroke-opacity:1;stroke-dasharray:none;stroke-dashoffset:0" />
      <path
         d="m 245.72769,87.088163 -0.0193,16.550437 c 0,11.04667 -8.96542,20.01208 -20.01209,20.01208 -11.04667,0 -20.01208,-8.96541 -20.01208,-20.01208 l 0,-16.550437 40.04345,0 21.59201,32.829957 23.73858,-32.829957 -45.33059,0 z"
         inkscape:connector-curvature="0"
         id="path2230"
         style="fill:#8bfc00;fill-opacity:1;fill-rule:evenodd;stroke:#60b300;stroke-width:2.29999995;stroke-linecap:butt;stroke-linejoin:round;stroke-miterlimit:4;stroke-opacity:1;stroke-dasharray:none;stroke-dashoffset:0" />
      <path
         d="m 250.28125,104.625 c -1.24999,12.50708 -14.02416,22.53125 -24.53125,22.53125 -10.50708,0 -22.03125,-7.77416 -23.53125,-19.78125 -0.14246,-1.14035 -0.16421,-0.0317 0.0312,-1.125 -7.61298,10.14264 -15.21875,21.88159 -15.21875,39.625 0,33.64677 27.32198,60.9375 60.96875,60.9375 33.64677,0 60.96874,-27.29072 60.96875,-60.9375 0,-19.85299 -7.07508,-34.63179 -19.78786,-43.41256 L 269,127.11218 250.28125,104.625 z"
         inkscape:connector-curvature="0"
         id="path2244"
         style="fill:#5e5e5e;fill-opacity:1;fill-rule:evenodd;stroke:#b4b4b4;stroke-width:3.3369267;stroke-linecap:butt;stroke-linejoin:round;stroke-miterlimit:4;stroke-opacity:1;stroke-dasharray:none;stroke-dashoffset:0" />
      <path
         d="m 134.4315,105.90217 c 9.3915,10.69954 15.08746,24.72177 15.08746,40.06629 0,33.54889 -27.22809,60.77699 -60.776992,60.77699 -33.548899,0 -60.77699,-27.2281 -60.77699,-60.77699 0,-12.18888 3.594082,-23.54342 9.779586,-33.06095 0,0 2.560523,-1.3509 3.621183,1.47753 1.06066,2.82842 7.071068,10.78337 18.031223,11.13693 10.960155,0.35355 15.556349,-0.17678 17.500893,-0.53033 1.944543,-0.35356 8.485281,-4.77297 12.904698,-12.9047 4.419418,-8.13173 10.783379,0.35355 12.904699,3.88909 2.12132,3.53553 7.07107,11.3137 7.07107,11.3137 0,0 15.55635,-21.03642 18.03122,-21.56675 2.47487,-0.53033 5.48008,-0.70711 6.62195,0.17919 z"
         inkscape:connector-curvature="0"
         id="path2237"
         style="fill:#5e5e5e;fill-opacity:1;fill-rule:evenodd;stroke:#b4b4b4;stroke-width:3.5999999;stroke-linecap:butt;stroke-linejoin:round;stroke-miterlimit:4;stroke-opacity:1;stroke-dasharray:none;stroke-dashoffset:0" />
      <path
         d="m 409.78125,104.625 c -1.24999,12.50708 -14.02416,21.82414 -24.53125,21.82414 -10.50708,0 -22.03125,-7.06705 -23.53125,-19.07414 -0.14246,-1.14035 -0.16421,-0.0317 0.0312,-1.125 -7.61298,10.14264 -15.21875,21.88159 -15.21875,39.625 0,33.64677 27.32198,60.9375 60.96875,60.9375 33.64677,0 60.96874,-27.29072 60.96875,-60.9375 0,-19.85299 -7.07508,-34.63179 -19.78786,-43.41256 L 428.5,127.11218 409.78125,104.625 z"
         inkscape:connector-curvature="0"
         id="path2257"
         style="fill:#5e5e5e;fill-opacity:1;fill-rule:evenodd;stroke:#b4b4b4;stroke-width:3.3369267;stroke-linecap:butt;stroke-linejoin:round;stroke-miterlimit:4;stroke-opacity:1;stroke-dasharray:none;stroke-dashoffset:0" />
      <path
         d="m 622.4315,105.90217 c 9.3915,10.69954 15.08746,24.72177 15.08746,40.06629 0,33.54889 -27.22809,60.77699 -60.77699,60.77699 -33.5489,0 -60.77699,-27.2281 -60.77699,-60.77699 0,-12.18888 3.59408,-23.54342 9.77958,-33.06095 0,0 2.56053,-1.3509 3.62119,1.47753 1.06066,2.82842 7.07107,10.78337 18.03122,11.13693 10.96016,0.35355 15.55635,-0.17678 17.50089,-0.53033 1.94455,-0.35356 8.48528,-4.77297 12.9047,-12.9047 4.41942,-8.13173 10.78338,0.35355 12.9047,3.88909 2.12132,3.53553 7.07107,11.3137 7.07107,11.3137 0,0 15.55635,-21.03642 18.03122,-21.56675 2.47487,-0.53033 5.48008,-0.70711 6.62195,0.17919 z"
         inkscape:connector-curvature="0"
         id="path2259"
         style="fill:#5e5e5e;fill-opacity:1;fill-rule:evenodd;stroke:#b4b4b4;stroke-width:3.5999999;stroke-linecap:butt;stroke-linejoin:round;stroke-miterlimit:4;stroke-opacity:1;stroke-dasharray:none;stroke-dashoffset:0" />
      <path
         d="m 405.06196,102.66893 c 0,11.04667 -8.96542,20.01208 -20.01209,20.01208 -11.04667,0 -20.01208,-8.96541 -20.01208,-20.01208 l 0,-16.550437 40.04345,0 -0.0193,16.550437 z"
         inkscape:connector-curvature="0"
         id="path2261"
         style="fill:#508888;fill-opacity:1;fill-rule:evenodd;stroke:#286060;stroke-width:2.29999995;stroke-linecap:butt;stroke-linejoin:round;stroke-miterlimit:4;stroke-opacity:1;stroke-dasharray:none;stroke-dashoffset:0" />
      <path
         d="m 407.22769,86.088163 20.71701,33.329957 25.23858,-33.329957 -45.95559,0 z"
         inkscape:connector-curvature="0"
         id="path2263"
         style="fill:#ff5e00;fill-opacity:1;fill-rule:evenodd;stroke:#ff0000;stroke-width:2.29999995;stroke-linecap:butt;stroke-linejoin:round;stroke-miterlimit:4;stroke-opacity:1;stroke-dasharray:none;stroke-dashoffset:0" />
      <path
         d="m 546.43219,45.80739 c 7.81118,7.811177 7.81117,20.490193 0,28.30137 -7.81118,7.811178 -20.49019,7.811178 -28.30137,0 L 506.42789,62.405831 534.7429,34.090827 546.43219,45.80739 z"
         inkscape:connector-curvature="0"
         id="path2267"
         style="fill:#508888;fill-opacity:1;fill-rule:evenodd;stroke:#286060;stroke-width:2.30000067;stroke-linecap:butt;stroke-linejoin:round;stroke-miterlimit:4;stroke-opacity:1;stroke-dasharray:none;stroke-dashoffset:0" />
      <path
         d="m 617.21817,29.076825 -8.9187,38.216988 41.41422,-5.721469 -32.49552,-32.495519 z"
         inkscape:connector-curvature="0"
         id="path2269"
         style="fill:#ff5e00;fill-opacity:1;fill-rule:evenodd;stroke:#ff0000;stroke-width:2.30000067;stroke-linecap:butt;stroke-linejoin:round;stroke-miterlimit:4;stroke-opacity:1;stroke-dasharray:none;stroke-dashoffset:0" />
      <path
         d="m 183.14844,148.65124 -11.46094,-11.5625 0,5.96094 -17.0625,0 0,5.55078 0,5.55078 17.0625,0 0,5.96094 11.46094,-11.46094 z"
         inkscape:connector-curvature="0"
         id="path2275"
         style="fill:#b2b2b2;fill-opacity:1;fill-rule:evenodd;stroke:#000000;stroke-width:1.20000005;stroke-linecap:butt;stroke-linejoin:miter;stroke-miterlimit:4;stroke-opacity:1" />
      <path
         d="m 342.24747,148.65124 -11.46094,-11.5625 0,5.96094 -17.0625,0 0,5.55078 0,5.55078 17.0625,0 0,5.96094 11.46094,-11.46094 z"
         inkscape:connector-curvature="0"
         id="path2282"
         style="fill:#b2b2b2;fill-opacity:1;fill-rule:evenodd;stroke:#000000;stroke-width:1.20000005;stroke-linecap:butt;stroke-linejoin:miter;stroke-miterlimit:4;stroke-opacity:1" />
      <path
         d="m 506.29624,148.65124 -11.46094,-11.5625 0,5.96094 -17.0625,0 0,5.55078 0,5.55078 17.0625,0 0,5.96094 11.46094,-11.46094 z"
         inkscape:connector-curvature="0"
         id="path2284"
         style="fill:#b2b2b2;fill-opacity:1;fill-rule:evenodd;stroke:#000000;stroke-width:1.20000005;stroke-linecap:butt;stroke-linejoin:miter;stroke-miterlimit:4;stroke-opacity:1" />
      <g
         id="g2294">
        <path
           d="m 90.75,58.237181 c 0,0 -13.625,15.5 -9.875,31.25"
           inkscape:connector-curvature="0"
           id="path2290"
           style="fill:none;stroke:#000000;stroke-width:2.29999995;stroke-linecap:butt;stroke-linejoin:miter;stroke-miterlimit:4;stroke-opacity:1;stroke-dasharray:none" />
        <path
           d="m 74.75,91.174681 11.375,-4.375 -2.5625,10.9375 -8.8125,-6.5625 z"
           inkscape:connector-curvature="0"
           id="path2292"
           style="fill:#000000;fill-opacity:1;fill-rule:evenodd;stroke:#000000;stroke-width:1px;stroke-linecap:butt;stroke-linejoin:miter;stroke-opacity:1" />
      </g>
      <g
         id="g2304">
        <path
           d="m 554,114.11218 c 0,0 4.5,-11.625 -3.625,-21.499999"
           inkscape:connector-curvature="0"
           id="path2300"
           style="fill:none;stroke:#000000;stroke-width:2.875;stroke-linecap:butt;stroke-linejoin:miter;stroke-miterlimit:4;stroke-opacity:1;stroke-dasharray:none" />
        <path
           d="m 554.72527,88.045308 -8.97142,8.971417 -2.07712,-10.827572 11.04854,1.856155 z"
           inkscape:connector-curvature="0"
           id="path2302"
           style="fill:#000000;fill-opacity:1;fill-rule:evenodd;stroke:#000000;stroke-width:1px;stroke-linecap:butt;stroke-linejoin:miter;stroke-opacity:1" />
      </g>
      <path
         d="m 593.60355,109.32557 c 0,0 -3.99372,-18.316942 9.23484,-28.941942"
         inkscape:connector-curvature="0"
         id="path2310"
         style="fill:none;stroke:#000000;stroke-width:2.875;stroke-linecap:butt;stroke-linejoin:miter;stroke-miterlimit:4;stroke-opacity:1;stroke-dasharray:none" />
      <path
         d="m 598.56589,74.521891 9.28078,11.490485 2.2097,-10.16466 -11.49048,-1.325825 z"
         inkscape:connector-curvature="0"
         id="path2312"
         style="fill:#000000;fill-opacity:1;fill-rule:evenodd;stroke:#000000;stroke-width:1px;stroke-linecap:butt;stroke-linejoin:miter;stroke-opacity:1" />
      <path
         d="M 155.875,50.737181 112,35.487181"
         inkscape:connector-curvature="0"
         id="path2314"
         style="fill:none;stroke:#000000;stroke-width:1.75;stroke-linecap:butt;stroke-linejoin:miter;stroke-miterlimit:4;stroke-opacity:1;stroke-dasharray:none" />
      <path
         d="M 146.01755,85.747211 107.83378,114.20826"
         inkscape:connector-curvature="0"
         id="path2316"
         style="fill:none;stroke:#000000;stroke-width:1.75;stroke-linecap:butt;stroke-linejoin:miter;stroke-miterlimit:4;stroke-opacity:1;stroke-dasharray:none" />
      <path
         d="M 334.63828,68.776649 266.93281,120.21867"
         inkscape:connector-curvature="0"
         id="path2318"
         style="fill:none;stroke:#000000;stroke-width:1.75;stroke-linecap:butt;stroke-linejoin:miter;stroke-miterlimit:4;stroke-opacity:1;stroke-dasharray:none" />
      <text
         x="93.338097"
         y="232.29509"
         id="text2320"
         xml:space="preserve"
         style="font-size:12px;font-style:normal;font-weight:normal;line-height:125%;fill:#000000;fill-opacity:1;stroke:none;font-family:Bitstream Vera Sans"><tspan
           x="93.338097"
           y="232.29509"
           id="tspan2322"
           style="font-size:14.5px;font-style:normal;font-variant:normal;font-weight:normal;font-stretch:normal;text-align:center;line-height:125%;writing-mode:lr-tb;text-anchor:middle;font-family:Arial">Substrate entering</tspan><tspan
           x="93.338097"
           y="250.42009"
           id="tspan2324"
           style="font-size:14.5px;font-style:normal;font-variant:normal;font-weight:normal;font-stretch:normal;text-align:center;line-height:125%;writing-mode:lr-tb;text-anchor:middle;font-family:Arial">active site of enzyme</tspan></text>
      <text
         x="254.2049"
         y="234.06285"
         id="text2326"
         xml:space="preserve"
         style="font-size:12px;font-style:normal;font-weight:normal;line-height:125%;fill:#000000;fill-opacity:1;stroke:none;font-family:Bitstream Vera Sans"><tspan
           x="254.2049"
           y="234.06285"
           id="tspan2330"
           style="font-size:14.5px;font-style:normal;font-variant:normal;font-weight:normal;font-stretch:normal;text-align:center;line-height:125%;writing-mode:lr-tb;text-anchor:middle;font-family:Arial">Enzyme/substrate</tspan><tspan
           x="254.2049"
           y="252.18785"
           id="tspan2334"
           style="font-size:14.5px;font-style:normal;font-variant:normal;font-weight:normal;font-stretch:normal;text-align:center;line-height:125%;writing-mode:lr-tb;text-anchor:middle;font-family:Arial">complex</tspan></text>
      <text
         x="408.82904"
         y="234.4164"
         id="text2336"
         xml:space="preserve"
         style="font-size:12px;font-style:normal;font-weight:normal;line-height:125%;fill:#000000;fill-opacity:1;stroke:none;font-family:Bitstream Vera Sans"><tspan
           x="408.82904"
           y="234.4164"
           id="tspan2338"
           style="font-size:14.5px;font-style:normal;font-variant:normal;font-weight:normal;font-stretch:normal;text-align:center;line-height:125%;writing-mode:lr-tb;text-anchor:middle;font-family:Arial">Enzyme/products</tspan><tspan
           x="408.82904"
           y="252.5414"
           id="tspan2340"
           style="font-size:14.5px;font-style:normal;font-variant:normal;font-weight:normal;font-stretch:normal;text-align:center;line-height:125%;writing-mode:lr-tb;text-anchor:middle;font-family:Arial">complex</tspan></text>
      <text
         x="579.94208"
         y="234.36087"
         id="text2342"
         xml:space="preserve"
         style="font-size:12px;font-style:normal;font-weight:normal;line-height:125%;fill:#000000;fill-opacity:1;stroke:none;font-family:Bitstream Vera Sans"><tspan
           x="579.94208"
           y="234.36087"
           id="tspan2346"
           style="font-size:14.5px;font-style:normal;font-variant:normal;font-weight:normal;font-stretch:normal;text-align:center;line-height:125%;writing-mode:lr-tb;text-anchor:middle;font-family:Arial">Products leaving</tspan><tspan
           x="579.94208"
           y="252.48587"
           id="tspan2350"
           style="font-size:14.5px;font-style:normal;font-variant:normal;font-weight:normal;font-stretch:normal;text-align:center;line-height:125%;writing-mode:lr-tb;text-anchor:middle;font-family:Arial">active site of enzyme</tspan></text>
      <text
         x="578.39185"
         y="39.691898"
         id="text2352"
         xml:space="preserve"
         style="font-size:12px;font-style:normal;font-weight:normal;line-height:135.00000238%;fill:#000000;fill-opacity:1;stroke:none;font-family:Bitstream Vera Sans"><tspan
           x="580.26392"
           y="39.691898"
           id="tspan2356"
           style="font-size:13.5px;font-style:normal;font-variant:normal;font-weight:bold;font-stretch:normal;text-align:center;line-height:135.00000238%;writing-mode:lr-tb;text-anchor:middle;font-family:Arial"><tspan
             id="tspan2360"
             style="font-size:13.5px;font-style:normal;font-variant:normal;font-weight:normal;font-stretch:normal;text-align:center;line-height:135.00000238%;writing-mode:lr-tb;text-anchor:middle;font-family:Arial">Products </tspan></tspan></text>
      <text
         x="189.72925"
         y="55.739868"
         id="text2362"
         xml:space="preserve"
         style="font-size:12px;font-style:normal;font-weight:normal;line-height:135.00000238%;fill:#000000;fill-opacity:1;stroke:none;font-family:Bitstream Vera Sans"><tspan
           x="189.72925"
           y="55.739868"
           id="tspan2364"
           style="font-size:13.5px;font-style:normal;font-variant:normal;font-weight:normal;font-stretch:normal;text-align:center;line-height:135.00000238%;writing-mode:lr-tb;text-anchor:middle;font-family:Arial">Substrate</tspan></text>
      <text
         x="161.48022"
         y="79.56897"
         id="text2368"
         xml:space="preserve"
         style="font-size:12px;font-style:normal;font-weight:normal;line-height:135.00000238%;fill:#000000;fill-opacity:1;stroke:none;font-family:Bitstream Vera Sans"><tspan
           x="161.48022"
           y="79.56897"
           id="tspan2370"
           style="font-size:13.5px;font-style:normal;font-variant:normal;font-weight:normal;font-stretch:normal;text-align:center;line-height:135.00000238%;writing-mode:lr-tb;text-anchor:middle;font-family:Arial">Active site</tspan></text>
      <text
         x="346.79333"
         y="43.614868"
         id="text2372"
         xml:space="preserve"
         style="font-size:12px;font-style:normal;font-weight:normal;line-height:120.00000477%;fill:#000000;fill-opacity:1;stroke:none;font-family:Bitstream Vera Sans"><tspan
           x="346.79333"
           y="43.614868"
           id="tspan2374"
           style="font-size:13.5px;font-style:normal;font-variant:normal;font-weight:normal;font-stretch:normal;text-align:center;line-height:120.00000477%;writing-mode:lr-tb;text-anchor:middle;font-family:Arial">Enzyme changes shape</tspan><tspan
           x="346.79333"
           y="59.814869"
           id="tspan2376"
           style="font-size:13.5px;font-style:normal;font-variant:normal;font-weight:normal;font-stretch:normal;text-align:center;line-height:120.00000477%;writing-mode:lr-tb;text-anchor:middle;font-family:Arial">slightly as substrate binds</tspan></text>
    </g>
  </g>
</svg>
